<svg width="132" height="73" viewBox="0 0 132 73" fill="none" xmlns="http://www.w3.org/2000/svg">
<g clip-path="url(#clip0_552_2811)" filter="url(#filter0_d_552_2811)">
<path d="M22.3722 37.3227L33.128 22.2645M22.3722 37.3227L33.128 51.3052M22.3722 37.3227C30.692 38.7775 35.3781 38.8262 43.8838 37.3227M33.128 22.2645V51.3052M33.128 22.2645L36.9694 27.6424M43.8838 37.3227L33.128 51.3052M43.8838 37.3227L40.0425 31.9448" stroke="url(#paint0_linear_552_2811)" stroke-width="1.93605" stroke-linecap="round" stroke-linejoin="round"/>
</g>
<path d="M68.0645 34.2391H64.8524C64.7937 33.8235 64.6739 33.4544 64.493 33.1317C64.3121 32.8042 64.0799 32.5255 63.7964 32.2957C63.5128 32.0659 63.1852 31.8899 62.8137 31.7677C62.447 31.6455 62.0485 31.5844 61.6183 31.5844C60.8409 31.5844 60.1638 31.7775 59.5869 32.1637C59.01 32.5451 58.5627 33.1024 58.2449 33.8358C57.9271 34.5642 57.7682 35.4491 57.7682 36.4905C57.7682 37.5612 57.9271 38.4608 58.2449 39.1892C58.5676 39.9177 59.0173 40.4677 59.5943 40.8393C60.1712 41.2108 60.8385 41.3966 61.5963 41.3966C62.0216 41.3966 62.4152 41.3404 62.777 41.2279C63.1437 41.1155 63.4688 40.9517 63.7524 40.7366C64.0359 40.5166 64.2706 40.2501 64.4564 39.9372C64.647 39.6243 64.779 39.2674 64.8524 38.8665L68.0645 38.8812C67.9813 39.5706 67.7736 40.2355 67.4411 40.8759C67.1135 41.5115 66.6711 42.0811 66.1137 42.5846C65.5613 43.0833 64.9013 43.4793 64.1337 43.7727C63.371 44.0611 62.5081 44.2053 61.545 44.2053C60.2054 44.2053 59.0076 43.9022 57.9515 43.296C56.9004 42.6897 56.0693 41.8122 55.4582 40.6633C54.8519 39.5143 54.5488 38.1234 54.5488 36.4905C54.5488 34.8527 54.8568 33.4593 55.4728 32.3104C56.0888 31.1615 56.9249 30.2863 57.9809 29.685C59.0369 29.0788 60.2249 28.7756 61.545 28.7756C62.4152 28.7756 63.2219 28.8979 63.965 29.1423C64.713 29.3868 65.3755 29.7437 65.9524 30.213C66.5293 30.6775 66.9987 31.247 67.3604 31.9217C67.7271 32.5964 67.9618 33.3689 68.0645 34.2391ZM70.2828 44V32.7357H73.3116V34.7011H73.4289C73.6343 34.002 73.9789 33.474 74.4629 33.1171C74.947 32.7553 75.5043 32.5744 76.135 32.5744C76.2914 32.5744 76.4601 32.5842 76.641 32.6037C76.8219 32.6233 76.9808 32.6502 77.1177 32.6844V35.4565C76.971 35.4125 76.7681 35.3733 76.509 35.3391C76.2499 35.3049 76.0128 35.2878 75.7976 35.2878C75.3381 35.2878 74.9274 35.388 74.5656 35.5885C74.2087 35.784 73.9252 36.0578 73.7149 36.4098C73.5096 36.7618 73.4069 37.1676 73.4069 37.6272V44H70.2828ZM81.0044 48.2241C80.6084 48.2241 80.2369 48.1923 79.8897 48.1288C79.5475 48.0701 79.2639 47.9943 79.0391 47.9014L79.7431 45.5694C80.1097 45.6818 80.4398 45.7429 80.7331 45.7527C81.0313 45.7625 81.288 45.694 81.5031 45.5474C81.7231 45.4007 81.9016 45.1514 82.0385 44.7994L82.2218 44.3227L78.181 32.7357H81.4664L83.7985 41.0079H83.9158L86.2699 32.7357H89.5773L85.1992 45.2174C84.989 45.8236 84.703 46.3516 84.3412 46.8014C83.9843 47.2561 83.532 47.6056 82.9845 47.8501C82.4369 48.0994 81.7769 48.2241 81.0044 48.2241ZM91.176 48.2241V32.7357H94.2561V34.6278H94.3954C94.5323 34.3247 94.7303 34.0166 94.9894 33.7038C95.2534 33.386 95.5957 33.122 96.0161 32.9117C96.4415 32.6966 96.9695 32.5891 97.6002 32.5891C98.4215 32.5891 99.1793 32.8042 99.8736 33.2344C100.568 33.6598 101.123 34.3027 101.538 35.1631C101.954 36.0187 102.162 37.0918 102.162 38.3825C102.162 39.639 101.959 40.6999 101.553 41.5653C101.152 42.4257 100.604 43.0784 99.9102 43.5233C99.2209 43.9633 98.4484 44.1833 97.5928 44.1833C96.9866 44.1833 96.4708 44.0831 96.0455 43.8827C95.625 43.6822 95.2803 43.4304 95.0114 43.1273C94.7425 42.8193 94.5372 42.5089 94.3954 42.196H94.3001V48.2241H91.176ZM94.2341 38.3679C94.2341 39.0377 94.327 39.6219 94.5128 40.1206C94.6985 40.6193 94.9674 41.0079 95.3194 41.2866C95.6715 41.5604 96.0992 41.6973 96.6028 41.6973C97.1113 41.6973 97.5415 41.5579 97.8935 41.2793C98.2455 40.9957 98.512 40.6046 98.6929 40.1059C98.8786 39.6023 98.9715 39.023 98.9715 38.3679C98.9715 37.7176 98.8811 37.1456 98.7002 36.6518C98.5193 36.158 98.2528 35.7718 97.9008 35.4931C97.5488 35.2145 97.1162 35.0751 96.6028 35.0751C96.0944 35.0751 95.6641 35.2096 95.3121 35.4785C94.965 35.7474 94.6985 36.1287 94.5128 36.6225C94.327 37.1163 94.2341 37.6981 94.2341 38.3679ZM110.236 32.7357V35.0825H103.452V32.7357H110.236ZM104.992 30.037H108.116V40.5386C108.116 40.827 108.16 41.0519 108.248 41.2133C108.336 41.3697 108.459 41.4797 108.615 41.5433C108.776 41.6068 108.962 41.6386 109.172 41.6386C109.319 41.6386 109.466 41.6264 109.612 41.6019C109.759 41.5726 109.872 41.5506 109.95 41.5359L110.441 43.8607C110.285 43.9096 110.065 43.9658 109.781 44.0293C109.498 44.0978 109.153 44.1393 108.747 44.154C107.994 44.1833 107.334 44.0831 106.767 43.8533C106.205 43.6235 105.767 43.2666 105.454 42.7826C105.141 42.2986 104.987 41.6875 104.992 40.9493V30.037ZM117.239 44.22C116.1 44.22 115.115 43.978 114.284 43.494C113.458 43.0051 112.82 42.3255 112.37 41.4553C111.92 40.5801 111.695 39.5657 111.695 38.4119C111.695 37.2483 111.92 36.2314 112.37 35.3611C112.82 34.486 113.458 33.8064 114.284 33.3224C115.115 32.8335 116.1 32.5891 117.239 32.5891C118.378 32.5891 119.361 32.8335 120.187 33.3224C121.019 33.8064 121.659 34.486 122.109 35.3611C122.559 36.2314 122.783 37.2483 122.783 38.4119C122.783 39.5657 122.559 40.5801 122.109 41.4553C121.659 42.3255 121.019 43.0051 120.187 43.494C119.361 43.978 118.378 44.22 117.239 44.22ZM117.254 41.7999C117.772 41.7999 118.205 41.6533 118.552 41.3599C118.899 41.0617 119.161 40.6559 119.337 40.1426C119.518 39.6292 119.608 39.045 119.608 38.3899C119.608 37.7347 119.518 37.1505 119.337 36.6372C119.161 36.1238 118.899 35.718 118.552 35.4198C118.205 35.1216 117.772 34.9724 117.254 34.9724C116.731 34.9724 116.291 35.1216 115.934 35.4198C115.582 35.718 115.315 36.1238 115.135 36.6372C114.959 37.1505 114.871 37.7347 114.871 38.3899C114.871 39.045 114.959 39.6292 115.135 40.1426C115.315 40.6559 115.582 41.0617 115.934 41.3599C116.291 41.6533 116.731 41.7999 117.254 41.7999ZM126.375 33.9695V30.7222H127.946C128.175 30.7222 128.377 30.7662 128.553 30.8542C128.732 30.9422 128.87 31.0669 128.967 31.2282C129.067 31.3896 129.117 31.5832 129.117 31.8091C129.117 32.0379 129.065 32.2329 128.963 32.3943C128.86 32.5527 128.718 32.6744 128.536 32.7595C128.357 32.8416 128.15 32.8827 127.915 32.8827H126.859V32.2447H127.748C127.88 32.2447 127.987 32.208 128.069 32.1347C128.152 32.0613 128.193 31.9528 128.193 31.8091C128.193 31.6594 128.152 31.5509 128.069 31.4834C127.987 31.413 127.882 31.3778 127.753 31.3778H127.264V33.9695H126.375ZM128.487 32.4823L129.205 33.9695H128.232L127.572 32.4823H128.487ZM127.665 35.9055C127.178 35.9055 126.722 35.8146 126.296 35.6327C125.871 35.4509 125.497 35.1986 125.174 34.8759C124.851 34.5533 124.599 34.1792 124.417 33.7539C124.235 33.3286 124.145 32.8724 124.145 32.3855C124.145 31.8985 124.235 31.4424 124.417 31.017C124.599 30.5917 124.851 30.2177 125.174 29.895C125.497 29.5723 125.871 29.3201 126.296 29.1382C126.722 28.9563 127.178 28.8654 127.665 28.8654C128.152 28.8654 128.608 28.9563 129.033 29.1382C129.458 29.3201 129.832 29.5723 130.155 29.895C130.478 30.2177 130.73 30.5917 130.912 31.017C131.094 31.4424 131.185 31.8985 131.185 32.3855C131.185 32.8724 131.094 33.3286 130.912 33.7539C130.73 34.1792 130.478 34.5533 130.155 34.8759C129.832 35.1986 129.458 35.4509 129.033 35.6327C128.608 35.8146 128.152 35.9055 127.665 35.9055ZM127.665 34.9463C128.14 34.9463 128.571 34.8319 128.958 34.6031C129.345 34.3714 129.653 34.0619 129.882 33.6747C130.114 33.2875 130.23 32.8577 130.23 32.3855C130.23 31.9132 130.114 31.4834 129.882 31.0962C129.653 30.709 129.344 30.401 128.954 30.1722C128.567 29.9405 128.137 29.8246 127.665 29.8246C127.192 29.8246 126.763 29.9405 126.375 30.1722C125.988 30.401 125.679 30.709 125.447 31.0962C125.218 31.4834 125.104 31.9132 125.104 32.3855C125.104 32.8577 125.218 33.2875 125.447 33.6747C125.679 34.0619 125.988 34.3714 126.375 34.6031C126.763 34.8319 127.192 34.9463 127.665 34.9463Z" fill="white"/>
<defs>
<filter id="filter0_d_552_2811" x="0.21517" y="0.537802" width="65.8256" height="72.9244" filterUnits="userSpaceOnUse" color-interpolation-filters="sRGB">
<feFlood flood-opacity="0" result="BackgroundImageFix"/>
<feColorMatrix in="SourceAlpha" type="matrix" values="0 0 0 0 0 0 0 0 0 0 0 0 0 0 0 0 0 0 127 0" result="hardAlpha"/>
<feOffset/>
<feGaussianBlur stdDeviation="10.3256"/>
<feColorMatrix type="matrix" values="0 0 0 0 0.741176 0 0 0 0 0.188235 0 0 0 0 0.94902 0 0 0 0.5 0"/>
<feBlend mode="normal" in2="BackgroundImageFix" result="effect1_dropShadow_552_2811"/>
<feBlend mode="normal" in="SourceGraphic" in2="effect1_dropShadow_552_2811" result="shape"/>
</filter>
<linearGradient id="paint0_linear_552_2811" x1="22.3722" y1="22.2645" x2="50.1525" y2="42.8425" gradientUnits="userSpaceOnUse">
<stop stop-color="#9A4DFF"/>
<stop offset="1" stop-color="#F600DD"/>
</linearGradient>
<clipPath id="clip0_552_2811">
<rect width="24.5233" height="31.6221" fill="white" transform="translate(20.8663 21.189)"/>
</clipPath>
</defs>
</svg>
