<svg width="111" height="32" viewBox="0 0 111 32" fill="none" xmlns="http://www.w3.org/2000/svg">
<g clip-path="url(#clip0_552_2811)" filter="url(#filter0_d_552_2811)">
<path d="M1.37219 16.3227L12.128 1.26453M1.37219 16.3227L12.128 30.3052M1.37219 16.3227C9.692 17.7775 14.3781 17.8262 22.8838 16.3227M12.128 1.26453V30.3052M12.128 1.26453L15.9694 6.64243M22.8838 16.3227L12.128 30.3052M22.8838 16.3227L19.0425 10.9448" stroke="url(#paint0_linear_552_2811)" stroke-width="1.93605" stroke-linecap="round" stroke-linejoin="round"/>
</g>
<path d="M47.0645 13.2391H43.8524C43.7937 12.8235 43.6739 12.4544 43.493 12.1317C43.3121 11.8042 43.0799 11.5255 42.7964 11.2957C42.5128 11.0659 42.1852 10.8899 41.8137 10.7677C41.447 10.6455 41.0485 10.5844 40.6183 10.5844C39.8409 10.5844 39.1638 10.7775 38.5869 11.1637C38.01 11.5451 37.5627 12.1024 37.2449 12.8358C36.9271 13.5642 36.7682 14.4491 36.7682 15.4905C36.7682 16.5612 36.9271 17.4608 37.2449 18.1892C37.5676 18.9177 38.0173 19.4677 38.5943 19.8393C39.1712 20.2108 39.8385 20.3966 40.5963 20.3966C41.0216 20.3966 41.4152 20.3404 41.777 20.2279C42.1437 20.1155 42.4688 19.9517 42.7524 19.7366C43.0359 19.5166 43.2706 19.2501 43.4564 18.9372C43.647 18.6243 43.779 18.2674 43.8524 17.8665L47.0645 17.8812C46.9813 18.5706 46.7736 19.2355 46.4411 19.8759C46.1135 20.5115 45.6711 21.0811 45.1137 21.5846C44.5613 22.0833 43.9013 22.4793 43.1337 22.7727C42.371 23.0611 41.5081 23.2053 40.545 23.2053C39.2054 23.2053 38.0076 22.9022 36.9515 22.296C35.9004 21.6897 35.0693 20.8122 34.4582 19.6633C33.8519 18.5143 33.5488 17.1234 33.5488 15.4905C33.5488 13.8527 33.8568 12.4593 34.4728 11.3104C35.0888 10.1615 35.9249 9.28634 36.9809 8.68499C38.0369 8.07875 39.2249 7.77563 40.545 7.77563C41.4152 7.77563 42.2219 7.89786 42.965 8.14231C43.713 8.38676 44.3755 8.74366 44.9524 9.213C45.5293 9.67746 45.9987 10.247 46.3604 10.9217C46.7271 11.5964 46.9618 12.3689 47.0645 13.2391ZM49.2828 23V11.7357H52.3116V13.7011H52.4289C52.6343 13.002 52.9789 12.474 53.4629 12.1171C53.947 11.7553 54.5043 11.5744 55.135 11.5744C55.2914 11.5744 55.4601 11.5842 55.641 11.6037C55.8219 11.6233 55.9808 11.6502 56.1177 11.6844V14.4565C55.971 14.4125 55.7681 14.3733 55.509 14.3391C55.2499 14.3049 55.0128 14.2878 54.7976 14.2878C54.3381 14.2878 53.9274 14.388 53.5656 14.5885C53.2087 14.784 52.9252 15.0578 52.7149 15.4098C52.5096 15.7618 52.4069 16.1676 52.4069 16.6272V23H49.2828ZM60.0044 27.2241C59.6084 27.2241 59.2369 27.1923 58.8897 27.1288C58.5475 27.0701 58.2639 26.9943 58.0391 26.9014L58.7431 24.5694C59.1097 24.6818 59.4398 24.7429 59.7331 24.7527C60.0313 24.7625 60.288 24.694 60.5031 24.5474C60.7231 24.4007 60.9016 24.1514 61.0385 23.7994L61.2218 23.3227L57.181 11.7357H60.4664L62.7985 20.0079H62.9158L65.2699 11.7357H68.5773L64.1992 24.2174C63.989 24.8236 63.703 25.3516 63.3412 25.8014C62.9843 26.2561 62.532 26.6056 61.9845 26.8501C61.4369 27.0994 60.7769 27.2241 60.0044 27.2241ZM70.176 27.2241V11.7357H73.2561V13.6278H73.3954C73.5323 13.3247 73.7303 13.0166 73.9894 12.7038C74.2534 12.386 74.5957 12.122 75.0161 11.9117C75.4415 11.6966 75.9695 11.5891 76.6002 11.5891C77.4215 11.5891 78.1793 11.8042 78.8736 12.2344C79.5678 12.6598 80.1227 13.3027 80.5383 14.1631C80.9538 15.0187 81.1616 16.0918 81.1616 17.3825C81.1616 18.639 80.9587 19.6999 80.5529 20.5653C80.152 21.4257 79.6045 22.0784 78.9102 22.5233C78.2209 22.9633 77.4484 23.1833 76.5928 23.1833C75.9866 23.1833 75.4708 23.0831 75.0455 22.8827C74.625 22.6822 74.2803 22.4304 74.0114 22.1273C73.7425 21.8193 73.5372 21.5089 73.3954 21.196H73.3001V27.2241H70.176ZM73.2341 17.3679C73.2341 18.0377 73.327 18.6219 73.5128 19.1206C73.6985 19.6193 73.9674 20.0079 74.3194 20.2866C74.6715 20.5604 75.0992 20.6973 75.6028 20.6973C76.1113 20.6973 76.5415 20.5579 76.8935 20.2793C77.2455 19.9957 77.512 19.6046 77.6929 19.1059C77.8786 18.6023 77.9715 18.023 77.9715 17.3679C77.9715 16.7176 77.8811 16.1456 77.7002 15.6518C77.5193 15.158 77.2528 14.7718 76.9008 14.4931C76.5488 14.2145 76.1162 14.0751 75.6028 14.0751C75.0944 14.0751 74.6641 14.2096 74.3121 14.4785C73.965 14.7474 73.6985 15.1287 73.5128 15.6225C73.327 16.1163 73.2341 16.6981 73.2341 17.3679ZM89.2358 11.7357V14.0825H82.4523V11.7357H89.2358ZM83.9923 9.037H87.1164V19.5386C87.1164 19.827 87.1604 20.0519 87.2484 20.2133C87.3364 20.3697 87.4586 20.4797 87.6151 20.5433C87.7764 20.6068 87.9622 20.6386 88.1724 20.6386C88.3191 20.6386 88.4658 20.6264 88.6125 20.6019C88.7591 20.5726 88.8716 20.5506 88.9498 20.5359L89.4411 22.8607C89.2847 22.9096 89.0647 22.9658 88.7811 23.0293C88.4976 23.0978 88.1529 23.1393 87.7471 23.154C86.9942 23.1833 86.3342 23.0831 85.7671 22.8533C85.2048 22.6235 84.7672 22.2666 84.4544 21.7826C84.1415 21.2986 83.9875 20.6875 83.9923 19.9493V9.037ZM96.2393 23.22C95.1002 23.22 94.115 22.978 93.2839 22.494C92.4577 22.0051 91.8196 21.3255 91.3699 20.4553C90.9201 19.5801 90.6952 18.5657 90.6952 17.4119C90.6952 16.2483 90.9201 15.2314 91.3699 14.3611C91.8196 13.486 92.4577 12.8064 93.2839 12.3224C94.115 11.8335 95.1002 11.5891 96.2393 11.5891C97.3784 11.5891 98.3611 11.8335 99.1874 12.3224C100.019 12.8064 100.659 13.486 101.109 14.3611C101.559 15.2314 101.783 16.2483 101.783 17.4119C101.783 18.5657 101.559 19.5801 101.109 20.4553C100.659 21.3255 100.019 22.0051 99.1874 22.494C98.3611 22.978 97.3784 23.22 96.2393 23.22ZM96.254 20.7999C96.7722 20.7999 97.2049 20.6533 97.552 20.3599C97.8991 20.0617 98.1607 19.6559 98.3367 19.1426C98.5176 18.6292 98.608 18.045 98.608 17.3899C98.608 16.7347 98.5176 16.1505 98.3367 15.6372C98.1607 15.1238 97.8991 14.718 97.552 14.4198C97.2049 14.1216 96.7722 13.9724 96.254 13.9724C95.7308 13.9724 95.2908 14.1216 94.9339 14.4198C94.5819 14.718 94.3155 15.1238 94.1346 15.6372C93.9586 16.1505 93.8706 16.7347 93.8706 17.3899C93.8706 18.045 93.9586 18.6292 94.1346 19.1426C94.3155 19.6559 94.5819 20.0617 94.9339 20.3599C95.2908 20.6533 95.7308 20.7999 96.254 20.7999ZM105.375 12.9695V9.72222H106.946C107.175 9.72222 107.377 9.76623 107.553 9.85423C107.732 9.94223 107.87 10.0669 107.967 10.2282C108.067 10.3896 108.117 10.5832 108.117 10.8091C108.117 11.0379 108.065 11.2329 107.963 11.3943C107.86 11.5527 107.718 11.6744 107.536 11.7595C107.357 11.8416 107.15 11.8827 106.915 11.8827H105.859V11.2447H106.748C106.88 11.2447 106.987 11.208 107.069 11.1347C107.152 11.0613 107.193 10.9528 107.193 10.8091C107.193 10.6594 107.152 10.5509 107.069 10.4834C106.987 10.413 106.882 10.3778 106.753 10.3778H106.264V12.9695H105.375ZM107.487 11.4823L108.205 12.9695H107.232L106.572 11.4823H107.487ZM106.665 14.9055C106.178 14.9055 105.722 14.8146 105.296 14.6327C104.871 14.4509 104.497 14.1986 104.174 13.8759C103.851 13.5533 103.599 13.1792 103.417 12.7539C103.235 12.3286 103.145 11.8724 103.145 11.3855C103.145 10.8985 103.235 10.4424 103.417 10.017C103.599 9.59169 103.851 9.21768 104.174 8.895C104.497 8.57233 104.871 8.32006 105.296 8.13819C105.722 7.95632 106.178 7.86538 106.665 7.86538C107.152 7.86538 107.608 7.95632 108.033 8.13819C108.458 8.32006 108.832 8.57233 109.155 8.895C109.478 9.21768 109.73 9.59169 109.912 10.017C110.094 10.4424 110.185 10.8985 110.185 11.3855C110.185 11.8724 110.094 12.3286 109.912 12.7539C109.73 13.1792 109.478 13.5533 109.155 13.8759C108.832 14.1986 108.458 14.4509 108.033 14.6327C107.608 14.8146 107.152 14.9055 106.665 14.9055ZM106.665 13.9463C107.14 13.9463 107.571 13.8319 107.958 13.6031C108.345 13.3714 108.653 13.0619 108.882 12.6747C109.114 12.2875 109.23 11.8577 109.23 11.3855C109.23 10.9132 109.114 10.4834 108.882 10.0962C108.653 9.70902 108.344 9.40102 107.954 9.17221C107.567 8.94047 107.137 8.8246 106.665 8.8246C106.192 8.8246 105.763 8.94047 105.375 9.17221C104.988 9.40102 104.679 9.70902 104.447 10.0962C104.218 10.4834 104.104 10.9132 104.104 11.3855C104.104 11.8577 104.218 12.2875 104.447 12.6747C104.679 13.0619 104.988 13.3714 105.375 13.6031C105.763 13.8319 106.192 13.9463 106.665 13.9463Z" fill="white"/>
<defs>
<filter id="filter0_d_552_2811" x="-20.7848" y="-20.4622" width="65.8256" height="72.9244" filterUnits="userSpaceOnUse" color-interpolation-filters="sRGB">
<feFlood flood-opacity="0" result="BackgroundImageFix"/>
<feColorMatrix in="SourceAlpha" type="matrix" values="0 0 0 0 0 0 0 0 0 0 0 0 0 0 0 0 0 0 127 0" result="hardAlpha"/>
<feOffset/>
<feGaussianBlur stdDeviation="10.3256"/>
<feColorMatrix type="matrix" values="0 0 0 0 0.741176 0 0 0 0 0.188235 0 0 0 0 0.94902 0 0 0 0.5 0"/>
<feBlend mode="normal" in2="BackgroundImageFix" result="effect1_dropShadow_552_2811"/>
<feBlend mode="normal" in="SourceGraphic" in2="effect1_dropShadow_552_2811" result="shape"/>
</filter>
<linearGradient id="paint0_linear_552_2811" x1="1.37219" y1="1.26453" x2="29.1525" y2="21.8425" gradientUnits="userSpaceOnUse">
<stop stop-color="#9A4DFF"/>
<stop offset="1" stop-color="#F600DD"/>
</linearGradient>
<clipPath id="clip0_552_2811">
<rect width="24.5233" height="31.6221" fill="white" transform="translate(-0.133667 0.188965)"/>
</clipPath>
</defs>
</svg>
