<svg width="194" height="66" viewBox="0 0 194 66" fill="none" xmlns="http://www.w3.org/2000/svg">
<rect x="1" y="1" width="192" height="64" rx="12" fill="white" fill-opacity="0.05"/>
<path d="M41.107 32.823C41.1249 31.4343 41.4948 30.0726 42.1823 28.8647C42.8698 27.6569 43.8524 26.642 45.0389 25.9147C44.2852 24.8412 43.2908 23.9578 42.1348 23.3346C40.9789 22.7114 39.6931 22.3656 38.3796 22.3246C35.5778 22.0314 32.8616 23.9965 31.4338 23.9965C29.9784 23.9965 27.7802 22.3538 25.413 22.4023C23.8818 22.4516 22.3896 22.8957 21.0817 23.6911C19.7738 24.4865 18.6948 25.6062 17.9499 26.941C14.7231 32.5122 17.13 40.7001 20.2211 45.2034C21.7676 47.4086 23.5751 49.8718 25.9401 49.7845C28.2544 49.6888 29.1188 48.3128 31.9123 48.3128C34.68 48.3128 35.4909 49.7845 37.9039 49.7289C40.3873 49.6888 41.9519 47.514 43.4442 45.2879C44.5554 43.7167 45.4105 41.9801 45.9777 40.1425C44.535 39.534 43.3037 38.5154 42.4376 37.2138C41.5714 35.9122 41.1086 34.3851 41.107 32.823Z" fill="white"/>
<path d="M36.5493 19.3629C37.9033 17.742 38.5704 15.6586 38.4089 13.5551C36.3402 13.7718 34.4293 14.7577 33.057 16.3164C32.386 17.0779 31.8721 17.9638 31.5447 18.9234C31.2173 19.8831 31.0827 20.8977 31.1487 21.9092C32.1834 21.9198 33.207 21.6962 34.1425 21.2551C35.078 20.8141 35.9009 20.1671 36.5493 19.3629Z" fill="white"/>
<path d="M68.8728 44.4234H61.2781L59.4542 49.7937H56.2374L63.431 29.9249H66.7732L73.9667 49.7937H70.6951L68.8728 44.4234ZM62.0647 41.9453H68.0847L65.117 33.2296H65.0339L62.0647 41.9453Z" fill="white"/>
<path d="M89.5024 42.5516C89.5024 47.0532 87.0863 49.9454 83.4402 49.9454C82.5165 49.9935 81.598 49.7814 80.7896 49.3332C79.9813 48.8849 79.3159 48.2188 78.8696 47.411H78.8006V54.586H75.8188V35.3079H78.705V37.7172H78.7598C79.2267 36.9133 79.9033 36.2506 80.7178 35.7996C81.5323 35.3487 82.4541 35.1264 83.3853 35.1563C87.0722 35.1563 89.5024 38.0626 89.5024 42.5516ZM86.4376 42.5516C86.4376 39.6188 84.9177 37.6907 82.5987 37.6907C80.3205 37.6907 78.7881 39.6594 78.7881 42.5516C78.7881 45.4704 80.3205 47.4251 82.5987 47.4251C84.9177 47.4251 86.4375 45.511 86.4375 42.5516H86.4376Z" fill="white"/>
<path d="M105.492 42.5516C105.492 47.0532 103.075 49.9454 99.4286 49.9454C98.505 49.9935 97.5864 49.7814 96.7781 49.3332C95.9698 48.8849 95.3043 48.2188 94.858 47.411H94.789V54.586H91.8073V35.3079H94.6935V37.7172H94.7483C95.2151 36.9133 95.8918 36.2506 96.7063 35.7996C97.5208 35.3487 98.4426 35.1264 99.3737 35.1563C103.061 35.1563 105.492 38.0626 105.492 42.5516ZM102.426 42.5516C102.426 39.6188 100.906 37.6907 98.5872 37.6907C96.309 37.6907 94.7765 39.6594 94.7765 42.5516C94.7765 45.4704 96.309 47.4251 98.5872 47.4251C100.906 47.4251 102.426 45.511 102.426 42.5516Z" fill="white"/>
<path d="M116.057 44.2578C116.278 46.2282 118.198 47.5218 120.821 47.5218C123.334 47.5218 125.142 46.2281 125.142 44.4515C125.142 42.9093 124.051 41.9859 121.469 41.3531L118.887 40.7328C115.228 39.8515 113.53 38.1453 113.53 35.3765C113.53 31.9484 116.526 29.5937 120.778 29.5937C124.99 29.5937 127.876 31.9484 127.973 35.3765H124.963C124.783 33.3937 123.139 32.1968 120.737 32.1968C118.335 32.1968 116.692 33.4078 116.692 35.1703C116.692 36.575 117.742 37.4015 120.31 38.0343L122.505 38.5718C126.593 39.5358 128.29 41.1734 128.29 44.0796C128.29 47.7968 125.322 50.1249 120.6 50.1249C116.181 50.1249 113.198 47.8514 113.005 44.2577L116.057 44.2578Z" fill="white"/>
<path d="M134.728 31.8797V35.3078H137.491V37.6625H134.728V45.6484C134.728 46.8891 135.281 47.4672 136.496 47.4672C136.824 47.4615 137.151 47.4385 137.477 47.3984V49.739C136.931 49.8408 136.376 49.8868 135.82 49.8765C132.879 49.8765 131.732 48.775 131.732 45.9656V37.6625H129.62V35.3078H131.732V31.8797H134.728Z" fill="white"/>
<path d="M139.089 42.5516C139.089 37.9938 141.781 35.1297 145.979 35.1297C150.19 35.1297 152.87 37.9937 152.87 42.5516C152.87 47.1219 150.204 49.9734 145.979 49.9734C141.754 49.9734 139.089 47.1219 139.089 42.5516ZM149.831 42.5516C149.831 39.425 148.395 37.5797 145.979 37.5797C143.562 37.5797 142.126 39.4391 142.126 42.5516C142.126 45.6906 143.562 47.5219 145.979 47.5219C148.395 47.5219 149.831 45.6906 149.831 42.5516H149.831Z" fill="white"/>
<path d="M155.328 35.3079H158.172V37.7734H158.241C158.433 37.0034 158.886 36.3229 159.522 35.8462C160.158 35.3696 160.94 35.126 161.735 35.1563C162.079 35.1551 162.421 35.1923 162.757 35.2672V38.0485C162.323 37.9163 161.87 37.8556 161.417 37.8688C160.984 37.8513 160.552 37.9274 160.151 38.092C159.75 38.2567 159.39 38.5058 159.095 38.8225C158.799 39.1391 158.576 39.5157 158.441 39.9263C158.305 40.337 158.261 40.772 158.31 41.2016V49.7938H155.328L155.328 35.3079Z" fill="white"/>
<path d="M176.505 45.5391C176.103 48.1688 173.535 49.9734 170.249 49.9734C166.024 49.9734 163.401 47.15 163.401 42.6203C163.401 38.0766 166.038 35.1297 170.124 35.1297C174.143 35.1297 176.671 37.8828 176.671 42.275V43.2938H166.411V43.4734C166.363 44.0066 166.43 44.5436 166.607 45.049C166.784 45.5543 167.066 46.0164 167.436 46.4045C167.806 46.7925 168.254 47.0977 168.751 47.2998C169.248 47.5019 169.782 47.5963 170.318 47.5766C171.023 47.6424 171.73 47.4797 172.335 47.1126C172.939 46.7455 173.409 46.1936 173.673 45.5391L176.505 45.5391ZM166.425 41.2156H173.687C173.714 40.7363 173.641 40.2566 173.473 39.8067C173.305 39.3567 173.046 38.9463 172.711 38.601C172.377 38.2558 171.974 37.9833 171.529 37.8005C171.084 37.6178 170.605 37.5288 170.124 37.5391C169.639 37.5362 169.157 37.6292 168.708 37.8128C168.259 37.9964 167.85 38.2669 167.506 38.6087C167.162 38.9505 166.89 39.3569 166.704 39.8043C166.518 40.2518 166.423 40.7314 166.425 41.2157V41.2156Z" fill="white"/>
<path d="M61.6918 14.9696C62.317 14.9248 62.9442 15.019 63.5285 15.2453C64.1127 15.4716 64.6393 15.8244 65.0702 16.2782C65.5011 16.732 65.8257 17.2755 66.0205 17.8695C66.2153 18.4636 66.2754 19.0933 66.1966 19.7133C66.1966 22.7633 64.5436 24.5165 61.6918 24.5165H58.2337V14.9696H61.6918ZM59.7207 23.1664H61.5257C61.9724 23.193 62.4195 23.12 62.8343 22.9526C63.2491 22.7852 63.6213 22.5277 63.9237 22.1988C64.2262 21.8699 64.4512 21.4779 64.5826 21.0513C64.7139 20.6247 64.7482 20.1743 64.683 19.7328C64.7435 19.293 64.7057 18.8454 64.5724 18.4219C64.439 17.9985 64.2133 17.6097 63.9116 17.2834C63.6099 16.9571 63.2395 16.7014 62.827 16.5346C62.4145 16.3678 61.9701 16.2941 61.5257 16.3187H59.7207V23.1664Z" fill="white"/>
<path d="M67.8763 20.911C67.8309 20.4375 67.8852 19.9598 68.0358 19.5085C68.1864 19.0572 68.4299 18.6422 68.7507 18.2903C69.0715 17.9383 69.4625 17.6571 69.8987 17.4646C70.3349 17.2722 70.8066 17.1728 71.2835 17.1728C71.7605 17.1728 72.2322 17.2722 72.6684 17.4646C73.1046 17.6571 73.4956 17.9383 73.8164 18.2903C74.1372 18.6422 74.3807 19.0572 74.5313 19.5085C74.6819 19.9598 74.7362 20.4375 74.6907 20.911C74.737 21.385 74.6834 21.8633 74.5332 22.3154C74.383 22.7674 74.1397 23.1831 73.8188 23.5358C73.4979 23.8884 73.1066 24.1703 72.67 24.3631C72.2333 24.556 71.7611 24.6556 71.2835 24.6556C70.806 24.6556 70.3338 24.556 69.8971 24.3631C69.4605 24.1703 69.0692 23.8884 68.7483 23.5358C68.4274 23.1831 68.1841 22.7674 68.0339 22.3154C67.8837 21.8633 67.8301 21.385 67.8763 20.911ZM73.2241 20.911C73.2241 19.3493 72.5206 18.436 71.2859 18.436C70.0465 18.436 69.3493 19.3493 69.3493 20.911C69.3493 22.4852 70.0465 23.3915 71.2859 23.3915C72.5206 23.3915 73.2241 22.479 73.2241 20.911H73.2241Z" fill="white"/>
<path d="M83.7489 24.5164H82.2697L80.7765 19.2101H80.6637L79.1767 24.5164H77.7117L75.7202 17.3117H77.1664L78.4606 22.8093H78.5672L80.0526 17.3117H81.4205L82.9059 22.8093H83.0187L84.3067 17.3117H85.7325L83.7489 24.5164Z" fill="white"/>
<path d="M87.4075 17.3117H88.7801V18.4562H88.8866C89.0674 18.0451 89.3722 17.7006 89.7587 17.4705C90.1452 17.2404 90.594 17.1363 91.0427 17.1726C91.3942 17.1463 91.7472 17.1991 92.0755 17.3273C92.4037 17.4554 92.6989 17.6556 92.9391 17.9129C93.1792 18.1703 93.3582 18.4782 93.4629 18.8139C93.5675 19.1497 93.595 19.5045 93.5434 19.8523V24.5163H92.1175V20.2094C92.1175 19.0515 91.613 18.4758 90.5585 18.4758C90.3198 18.4647 90.0815 18.5052 89.86 18.5945C89.6385 18.6838 89.439 18.8199 89.2751 18.9933C89.1113 19.1667 88.987 19.3734 88.9107 19.5992C88.8344 19.825 88.8081 20.0646 88.8333 20.3015V24.5164H87.4075L87.4075 17.3117Z" fill="white"/>
<path d="M95.8154 14.4992H97.2413V24.5164H95.8154V14.4992Z" fill="white"/>
<path d="M99.2235 20.9109C99.1781 20.4374 99.2324 19.9597 99.383 19.5084C99.5336 19.0571 99.7772 18.6421 100.098 18.2901C100.419 17.9381 100.81 17.6569 101.246 17.4645C101.682 17.272 102.154 17.1726 102.631 17.1726C103.108 17.1726 103.58 17.272 104.016 17.4645C104.452 17.6569 104.843 17.9381 105.164 18.2901C105.485 18.6421 105.728 19.0571 105.879 19.5084C106.03 19.9597 106.084 20.4374 106.039 20.9109C106.085 21.3849 106.031 21.8633 105.881 22.3153C105.731 22.7674 105.487 23.1831 105.166 23.5357C104.845 23.8884 104.454 24.1702 104.018 24.363C103.581 24.5559 103.109 24.6555 102.631 24.6555C102.154 24.6555 101.681 24.5559 101.245 24.363C100.808 24.1702 100.417 23.8884 100.096 23.5357C99.7748 23.1831 99.5314 22.7674 99.3812 22.3153C99.231 21.8633 99.1772 21.3849 99.2235 20.9109ZM104.571 20.9109C104.571 19.3492 103.868 18.436 102.633 18.436C101.394 18.436 100.696 19.3492 100.696 20.911C100.696 22.4852 101.394 23.3914 102.633 23.3914C103.868 23.3914 104.571 22.4789 104.571 20.9109H104.571Z" fill="white"/>
<path d="M107.54 22.4788C107.54 21.182 108.508 20.4343 110.227 20.3281L112.184 20.2156V19.5937C112.184 18.8328 111.679 18.4031 110.705 18.4031C109.909 18.4031 109.357 18.6945 109.199 19.2039H107.819C107.964 17.9664 109.132 17.1726 110.771 17.1726C112.582 17.1726 113.603 18.0718 113.603 19.5937V24.5164H112.231V23.5039H112.118C111.889 23.867 111.568 24.1631 111.186 24.3619C110.805 24.5606 110.378 24.6549 109.948 24.6351C109.645 24.6665 109.338 24.6342 109.048 24.5403C108.758 24.4464 108.491 24.2929 108.264 24.0898C108.037 23.8866 107.855 23.6383 107.731 23.3609C107.606 23.0834 107.541 22.7829 107.54 22.4788ZM112.184 21.8632V21.2609L110.42 21.3734C109.425 21.4398 108.973 21.7773 108.973 22.4124C108.973 23.0609 109.537 23.4382 110.313 23.4382C110.54 23.4611 110.77 23.4383 110.988 23.3709C111.206 23.3036 111.409 23.1931 111.583 23.0462C111.758 22.8993 111.901 22.7188 112.004 22.5156C112.107 22.3123 112.168 22.0905 112.184 21.8632Z" fill="white"/>
<path d="M115.478 20.9109C115.478 18.6344 116.651 17.1922 118.477 17.1922C118.928 17.1715 119.376 17.2793 119.769 17.5031C120.161 17.727 120.481 18.0575 120.692 18.4562H120.799V14.4992H122.225V24.5164H120.858V23.3781H120.745C120.518 23.7741 120.187 24.1005 119.787 24.3221C119.387 24.5437 118.934 24.6519 118.477 24.6351C116.639 24.6352 115.478 23.193 115.478 20.9109ZM116.95 20.9109C116.95 22.4391 117.673 23.3586 118.881 23.3586C120.083 23.3586 120.825 22.4258 120.825 20.9172C120.825 19.4156 120.075 18.4695 118.881 18.4695C117.681 18.4695 116.95 19.3953 116.95 20.9109H116.95Z" fill="white"/>
<path d="M128.124 20.911C128.078 20.4375 128.133 19.9598 128.283 19.5085C128.434 19.0572 128.677 18.6422 128.998 18.2903C129.319 17.9383 129.71 17.6571 130.146 17.4646C130.582 17.2722 131.054 17.1728 131.531 17.1728C132.008 17.1728 132.48 17.2722 132.916 17.4646C133.352 17.6571 133.743 17.9383 134.064 18.2903C134.385 18.6422 134.628 19.0572 134.779 19.5085C134.929 19.9598 134.984 20.4375 134.938 20.911C134.985 21.385 134.931 21.8633 134.781 22.3154C134.631 22.7674 134.387 23.1831 134.066 23.5358C133.745 23.8884 133.354 24.1703 132.917 24.3631C132.481 24.556 132.009 24.6556 131.531 24.6556C131.054 24.6556 130.581 24.556 130.145 24.3631C129.708 24.1703 129.317 23.8884 128.996 23.5358C128.675 23.1831 128.432 22.7674 128.281 22.3154C128.131 21.8633 128.078 21.385 128.124 20.911ZM133.472 20.911C133.472 19.3493 132.768 18.436 131.533 18.436C130.294 18.436 129.597 19.3493 129.597 20.911C129.597 22.4852 130.294 23.3915 131.533 23.3915C132.768 23.3915 133.472 22.479 133.472 20.911Z" fill="white"/>
<path d="M136.851 17.3117H138.224V18.4562H138.331C138.511 18.0451 138.816 17.7006 139.203 17.4705C139.589 17.2404 140.038 17.1363 140.487 17.1726C140.838 17.1463 141.191 17.1991 141.519 17.3273C141.848 17.4554 142.143 17.6556 142.383 17.9129C142.623 18.1703 142.802 18.4782 142.907 18.8139C143.011 19.1497 143.039 19.5045 142.987 19.8523V24.5163H141.561V20.2094C141.561 19.0515 141.057 18.4758 140.002 18.4758C139.764 18.4647 139.525 18.5052 139.304 18.5945C139.082 18.6838 138.883 18.8199 138.719 18.9933C138.555 19.1667 138.431 19.3734 138.355 19.5992C138.278 19.825 138.252 20.0646 138.277 20.3015V24.5164H136.851V17.3117Z" fill="white"/>
<path d="M151.044 15.518V17.3446H152.61V18.5422H151.044V22.2469C151.044 23.0016 151.356 23.3321 152.066 23.3321C152.248 23.3315 152.429 23.3205 152.61 23.2993V24.4836C152.354 24.5293 152.094 24.5536 151.834 24.5563C150.248 24.5563 149.617 24 149.617 22.611V18.5422H148.47V17.3445H149.617V15.518H151.044Z" fill="white"/>
<path d="M154.557 14.4992H155.971V18.4695H156.083C156.273 18.0546 156.586 17.7081 156.98 17.4771C157.375 17.2462 157.831 17.142 158.286 17.1789C158.636 17.1599 158.986 17.2181 159.31 17.3494C159.635 17.4807 159.926 17.6818 160.164 17.9383C160.402 18.1948 160.58 18.5005 160.685 18.8335C160.791 19.1666 160.821 19.5187 160.775 19.8648V24.5164H159.347V20.2156C159.347 19.0648 158.81 18.482 157.802 18.482C157.557 18.462 157.311 18.4956 157.08 18.5804C156.849 18.6653 156.64 18.7995 156.467 18.9734C156.294 19.1474 156.16 19.357 156.077 19.5877C155.993 19.8183 155.961 20.0643 155.983 20.3086V24.5164H154.557L154.557 14.4992Z" fill="white"/>
<path d="M169.089 22.5711C168.895 23.2296 168.475 23.7991 167.903 24.1802C167.33 24.5612 166.642 24.7295 165.958 24.6555C165.482 24.668 165.009 24.5771 164.572 24.389C164.134 24.201 163.743 23.9203 163.426 23.5665C163.108 23.2127 162.872 22.7942 162.733 22.3401C162.594 21.886 162.555 21.4071 162.62 20.9367C162.557 20.4649 162.596 19.985 162.735 19.5295C162.874 19.0741 163.109 18.6536 163.425 18.2967C163.741 17.9398 164.13 17.6547 164.566 17.4608C165.002 17.2669 165.474 17.1686 165.952 17.1727C167.962 17.1727 169.175 18.5423 169.175 20.8047V21.3008H164.073V21.3805C164.051 21.6449 164.084 21.911 164.171 22.1618C164.258 22.4126 164.396 22.6425 164.577 22.8369C164.758 23.0312 164.978 23.1856 165.223 23.2903C165.467 23.3949 165.731 23.4474 165.997 23.4445C166.338 23.4853 166.684 23.4241 166.99 23.2685C167.296 23.113 167.549 22.8702 167.716 22.5711L169.089 22.5711ZM164.073 20.2492H167.722C167.74 20.0074 167.707 19.7645 167.625 19.5362C167.544 19.3078 167.415 19.0991 167.247 18.9233C167.08 18.7475 166.877 18.6086 166.653 18.5156C166.428 18.4225 166.187 18.3773 165.944 18.3828C165.697 18.3797 165.452 18.4259 165.224 18.5186C164.996 18.6113 164.788 18.7487 164.614 18.9226C164.439 19.0966 164.302 19.3036 164.209 19.5314C164.116 19.7592 164.07 20.0033 164.073 20.2492H164.073Z" fill="white"/>
<rect x="1" y="1" width="192" height="64" rx="12" stroke="url(#paint0_linear_560_3161)" stroke-width="2"/>
<defs>
<linearGradient id="paint0_linear_560_3161" x1="1" y1="1" x2="39.4" y2="116.2" gradientUnits="userSpaceOnUse">
<stop stop-color="#00BEFB"/>
<stop offset="1" stop-color="#5EEBFF"/>
</linearGradient>
</defs>
</svg>
